<svg data-v-29081953="" xmlns="http://www.w3.org/2000/svg" viewBox="0 0 300 300"><!----><defs data-v-29081953=""><!----></defs><rect data-v-29081953="" fill="#351B4E" x="0" y="0" width="300px" height="300px" class="logo-background-square"></rect><defs data-v-29081953=""><!----></defs><g data-v-29081953="" id="a1babc40-955d-4c67-a5d3-632e79b831fb" fill="#FFFFFF" transform="matrix(2.9778201580047607,0,0,2.9778201580047607,95.53359452302486,124.22905995231356)"><path d="M5.19 3.75L5.19 3.75Q7.03 3.75 8.06 4.61L8.06 4.61L8.06 4.61Q9.09 5.47 9.09 7.00L9.09 7.00L9.09 7.00Q9.09 8.54 8.06 9.40L8.06 9.40L8.06 9.40Q7.03 10.26 5.19 10.26L5.19 10.26L2.27 10.26L2.27 13.55L1.79 13.55L1.79 3.75L5.19 3.75ZM5.22 9.83L5.22 9.83Q6.86 9.83 7.74 9.09L7.74 9.09L7.74 9.09Q8.62 8.36 8.62 7.00L8.62 7.00L8.62 7.00Q8.62 5.66 7.74 4.92L7.74 4.92L7.74 4.92Q6.86 4.19 5.22 4.19L5.22 4.19L2.27 4.19L2.27 9.83L5.22 9.83ZM19.21 13.55L18.65 13.55L16.23 10.18L16.23 10.18Q15.75 10.26 15.16 10.26L15.16 10.26L12.24 10.26L12.24 13.55L11.76 13.55L11.76 3.75L15.16 3.75L15.16 3.75Q17.00 3.75 18.02 4.61L18.02 4.61L18.02 4.61Q19.05 5.47 19.05 7.00L19.05 7.00L19.05 7.00Q19.05 8.18 18.45 8.97L18.45 8.97L18.45 8.97Q17.84 9.76 16.70 10.07L16.70 10.07L19.21 13.55ZM12.24 9.83L15.19 9.83L15.19 9.83Q16.83 9.83 17.71 9.09L17.71 9.09L17.71 9.09Q18.59 8.36 18.59 7.00L18.59 7.00L18.59 7.00Q18.59 5.66 17.71 4.92L17.71 4.92L17.71 4.92Q16.83 4.19 15.19 4.19L15.19 4.19L12.24 4.19L12.24 9.83ZM22.29 13.12L28.43 13.12L28.43 13.55L21.81 13.55L21.81 3.75L28.24 3.75L28.24 4.19L22.29 4.19L22.29 8.36L27.61 8.36L27.61 8.79L22.29 8.79L22.29 13.12ZM33.03 13.55L33.03 4.19L29.43 4.19L29.43 3.75L37.09 3.75L37.09 4.19L33.49 4.19L33.49 13.55L33.03 13.55ZM41.41 13.61L41.41 13.61Q40.35 13.61 39.39 13.23L39.39 13.23L39.39 13.23Q38.43 12.85 37.91 12.25L37.91 12.25L38.16 11.91L38.16 11.91Q38.65 12.47 39.53 12.83L39.53 12.83L39.53 12.83Q40.40 13.19 41.40 13.19L41.40 13.19L41.40 13.19Q42.87 13.19 43.62 12.61L43.62 12.61L43.62 12.61Q44.37 12.03 44.37 11.12L44.37 11.12L44.37 11.12Q44.37 10.42 43.97 9.99L43.97 9.99L43.97 9.99Q43.58 9.56 43.01 9.34L43.01 9.34L43.01 9.34Q42.43 9.13 41.44 8.89L41.44 8.89L41.44 8.89Q40.38 8.62 39.73 8.37L39.73 8.37L39.73 8.37Q39.09 8.12 38.64 7.60L38.64 7.60L38.64 7.60Q38.19 7.08 38.19 6.22L38.19 6.22L38.19 6.22Q38.19 5.53 38.56 4.96L38.56 4.96L38.56 4.96Q38.92 4.38 39.67 4.04L39.67 4.04L39.67 4.04Q40.42 3.70 41.54 3.70L41.54 3.70L41.54 3.70Q42.34 3.70 43.11 3.93L43.11 3.93L43.11 3.93Q43.89 4.17 44.44 4.59L44.44 4.59L44.23 4.97L44.23 4.97Q43.65 4.55 42.95 4.33L42.95 4.33L42.95 4.33Q42.24 4.12 41.55 4.12L41.55 4.12L41.55 4.12Q40.12 4.12 39.39 4.71L39.39 4.71L39.39 4.71Q38.65 5.31 38.65 6.22L38.65 6.22L38.65 6.22Q38.65 6.93 39.05 7.36L39.05 7.36L39.05 7.36Q39.45 7.78 40.03 8.01L40.03 8.01L40.03 8.01Q40.61 8.23 41.59 8.47L41.59 8.47L41.59 8.47Q42.66 8.74 43.30 8.98L43.30 8.98L43.30 8.98Q43.95 9.23 44.39 9.74L44.39 9.74L44.39 9.74Q44.83 10.25 44.83 11.10L44.83 11.10L44.83 11.10Q44.83 11.79 44.46 12.36L44.46 12.36L44.46 12.36Q44.09 12.94 43.32 13.27L43.32 13.27L43.32 13.27Q42.55 13.61 41.41 13.61L41.41 13.61ZM54.71 13.55L53.40 10.68L47.53 10.68L46.21 13.55L45.70 13.55L50.23 3.75L50.69 3.75L55.23 13.55L54.71 13.55ZM47.71 10.28L53.21 10.28L50.47 4.30L47.71 10.28Z"></path></g><defs data-v-29081953=""><!----></defs><g data-v-29081953="" id="d626e952-c234-4ade-b125-9ee89faf22e3" stroke="none" fill="#33D0F4" transform="matrix(2.5708019733428955,0,0,2.5708019733428955,40,127.86700240318874)"><path d="M18.617 7.714c-2.624 1.664-3.012.12-3.821 3.333.148-.25.336-.125.557-.315-.084.147-.258.399-.068 1.233 0-.478.212-.827.387-.884.457.233.125 1.253-.253 1.36-.79.223-2.049-1.536-1.177-2.521-.397-.074-1.659.105-2.073-.49-2.939-2.263-6.9-1.108-8.983-3.838 1.687 3.946 4.901 3.1 7.136 4.41-1.482.362-2.825.031-3.285-.698.547 1.64 2.697 1.981 4.167 2.193-.645.314-1.922.123-2.537-.135 1.299 1.377 2.495 1.567 4.368 1.294-.52.549-1.278.651-2 .621.922.336 1.335.604 2.336.504-1.63 2.723-5.05 2.542-6.871.773.057.217.951 1.285 2.15 1.613-4.145-.47-5.61-2.438-5.61-6.45-.422 1.475-.633 2-.32 3.51-2.377-2.377-1.2-7.268.73-8.635-1.006.208-1.357.724-1.999 1.445.544-2.718 3.498-5.065 6.2-4.368-.663-.585-1.204-.52-2.067-.52 1.16-.58 4.63-1.562 5.489-.023-.112-.41-.565-.647-.475-.628.972.198 1.945.556 2.932 1.02C7.448-2.507-.575 1.961.033 9.192c.832 9.91 16.024 10.883 16.634 1.581.818-1.207.782-2.193 1.95-3.06z"></path></g><!----></svg>