<svg data-v-29081953="" xmlns="http://www.w3.org/2000/svg" viewBox="0 0 300 300"><!----><defs data-v-29081953=""><!----></defs><rect data-v-29081953="" fill="#351B4E" x="0" y="0" width="300px" height="300px" class="logo-background-square"></rect><!----><defs data-v-29081953=""><!----></defs><g data-v-29081953="" id="e0981def-4c48-437a-b56b-8ec253c00d90" fill="#33D0F4" stroke="none" transform="matrix(11.817037582397461,0,0,11.817037582397461,40,48.26269408308855)"><path d="M18.617 7.714c-2.624 1.664-3.012.12-3.821 3.333.148-.25.336-.125.557-.315-.084.147-.258.399-.068 1.233 0-.478.212-.827.387-.884.457.233.125 1.253-.253 1.36-.79.223-2.049-1.536-1.177-2.521-.397-.074-1.659.105-2.073-.49-2.939-2.263-6.9-1.108-8.983-3.838 1.687 3.946 4.901 3.1 7.136 4.41-1.482.362-2.825.031-3.285-.698.547 1.64 2.697 1.981 4.167 2.193-.645.314-1.922.123-2.537-.135 1.299 1.377 2.495 1.567 4.368 1.294-.52.549-1.278.651-2 .621.922.336 1.335.604 2.336.504-1.63 2.723-5.05 2.542-6.871.773.057.217.951 1.285 2.15 1.613-4.145-.47-5.61-2.438-5.61-6.45-.422 1.475-.633 2-.32 3.51-2.377-2.377-1.2-7.268.73-8.635-1.006.208-1.357.724-1.999 1.445.544-2.718 3.498-5.065 6.2-4.368-.663-.585-1.204-.52-2.067-.52 1.16-.58 4.63-1.562 5.489-.023-.112-.41-.565-.647-.475-.628.972.198 1.945.556 2.932 1.02C7.448-2.507-.575 1.961.033 9.192c.832 9.91 16.024 10.883 16.634 1.581.818-1.207.782-2.193 1.95-3.06z"></path></g><!----></svg>